<mxfile host="app.diagrams.net" agent="Mozilla/5.0 (Windows NT 6.3; Win64; x64) AppleWebKit/537.36 (KHTML, like Gecko) Chrome/96.0.4664.110 Safari/537.36" version="24.7.17" pages="2">
  <diagram name="Página-1" id="ZYOgfnYUkl0IyrpCrmTy">
    <mxGraphModel dx="2138" dy="1827" grid="1" gridSize="10" guides="1" tooltips="1" connect="1" arrows="1" fold="1" page="1" pageScale="1" pageWidth="827" pageHeight="1169" math="0" shadow="0">
      <root>
        <mxCell id="0" />
        <mxCell id="1" parent="0" />
        <mxCell id="VQxIy5oKjTjXK29pPRl6-27" value="" style="edgeStyle=orthogonalEdgeStyle;rounded=0;orthogonalLoop=1;jettySize=auto;html=1;" parent="1" source="VQxIy5oKjTjXK29pPRl6-36" target="VQxIy5oKjTjXK29pPRl6-13" edge="1">
          <mxGeometry relative="1" as="geometry" />
        </mxCell>
        <mxCell id="VQxIy5oKjTjXK29pPRl6-35" style="edgeStyle=orthogonalEdgeStyle;rounded=0;orthogonalLoop=1;jettySize=auto;html=1;" parent="1" source="VQxIy5oKjTjXK29pPRl6-8" target="VQxIy5oKjTjXK29pPRl6-36" edge="1">
          <mxGeometry relative="1" as="geometry">
            <mxPoint x="719" y="170" as="targetPoint" />
          </mxGeometry>
        </mxCell>
        <mxCell id="VQxIy5oKjTjXK29pPRl6-8" value="Prender la luz del primer&lt;div&gt;&lt;span style=&quot;background-color: initial;&quot;&gt;semaforo(Verde)&lt;/span&gt;&lt;/div&gt;" style="shape=parallelogram;html=1;strokeWidth=2;perimeter=parallelogramPerimeter;whiteSpace=wrap;rounded=1;arcSize=12;size=0.23;fillColor=#d5e8d4;strokeColor=#82b366;" parent="1" vertex="1">
          <mxGeometry x="363" y="-170" width="226" height="60" as="geometry" />
        </mxCell>
        <mxCell id="VQxIy5oKjTjXK29pPRl6-28" value="" style="edgeStyle=orthogonalEdgeStyle;rounded=0;orthogonalLoop=1;jettySize=auto;html=1;" parent="1" source="VQxIy5oKjTjXK29pPRl6-13" target="VQxIy5oKjTjXK29pPRl6-14" edge="1">
          <mxGeometry relative="1" as="geometry" />
        </mxCell>
        <mxCell id="VQxIy5oKjTjXK29pPRl6-13" value="prender la luz del primer&lt;div&gt;semáforo&amp;nbsp;&lt;span style=&quot;background-color: initial;&quot;&gt;(Amarilla)&lt;/span&gt;&lt;/div&gt;" style="shape=parallelogram;html=1;strokeWidth=2;perimeter=parallelogramPerimeter;whiteSpace=wrap;rounded=1;arcSize=12;size=0.23;fillColor=#fff2cc;strokeColor=#d6b656;" parent="1" vertex="1">
          <mxGeometry x="363" y="10" width="226" height="60" as="geometry" />
        </mxCell>
        <mxCell id="VQxIy5oKjTjXK29pPRl6-14" value="prender la luz de primer&lt;div&gt;semáforo&amp;nbsp;&lt;span style=&quot;background-color: initial;&quot;&gt;(Roja)&lt;/span&gt;&lt;/div&gt;" style="shape=parallelogram;html=1;strokeWidth=2;perimeter=parallelogramPerimeter;whiteSpace=wrap;rounded=1;arcSize=12;size=0.23;fillColor=#f8cecc;strokeColor=#b85450;" parent="1" vertex="1">
          <mxGeometry x="363" y="240" width="226" height="60" as="geometry" />
        </mxCell>
        <mxCell id="VQxIy5oKjTjXK29pPRl6-26" value="" style="edgeStyle=orthogonalEdgeStyle;rounded=0;orthogonalLoop=1;jettySize=auto;html=1;" parent="1" source="VQxIy5oKjTjXK29pPRl6-15" target="VQxIy5oKjTjXK29pPRl6-8" edge="1">
          <mxGeometry relative="1" as="geometry" />
        </mxCell>
        <mxCell id="VQxIy5oKjTjXK29pPRl6-15" value="Semaforo 1" style="strokeWidth=2;html=1;shape=mxgraph.flowchart.start_1;whiteSpace=wrap;" parent="1" vertex="1">
          <mxGeometry x="426" y="-310" width="100" height="60" as="geometry" />
        </mxCell>
        <mxCell id="VQxIy5oKjTjXK29pPRl6-24" value="Construir un diagrama de flujo&lt;div&gt;que explique el algoritmo de funcionamiento&lt;/div&gt;&lt;div&gt;de un cruce de semaforos el cual está&lt;/div&gt;&lt;div&gt;constituido por 4 semaforos, 3 luces (Rojo,&lt;/div&gt;&lt;div&gt;amarillo y verde) Ademas la luz del tiempo para el cruce peatonal&lt;/div&gt;" style="text;html=1;align=center;verticalAlign=middle;resizable=0;points=[];autosize=1;strokeColor=none;fillColor=none;" parent="1" vertex="1">
          <mxGeometry x="-250" y="-110" width="370" height="90" as="geometry" />
        </mxCell>
        <mxCell id="VQxIy5oKjTjXK29pPRl6-25" value="Explique con lenguaje formal cada&lt;div&gt;paso&lt;/div&gt;" style="text;html=1;align=center;verticalAlign=middle;resizable=0;points=[];autosize=1;strokeColor=none;fillColor=none;" parent="1" vertex="1">
          <mxGeometry x="-160" y="-20" width="210" height="40" as="geometry" />
        </mxCell>
        <mxCell id="VQxIy5oKjTjXK29pPRl6-30" value="" style="strokeWidth=2;html=1;shape=mxgraph.flowchart.terminator;whiteSpace=wrap;" parent="1" vertex="1">
          <mxGeometry x="710" y="-270" width="100" height="60" as="geometry" />
        </mxCell>
        <mxCell id="VQxIy5oKjTjXK29pPRl6-31" value="" style="verticalLabelPosition=bottom;verticalAlign=top;html=1;shape=process;whiteSpace=wrap;rounded=1;size=0.14;arcSize=6;" parent="1" vertex="1">
          <mxGeometry x="556" y="-260" width="100" height="60" as="geometry" />
        </mxCell>
        <mxCell id="VQxIy5oKjTjXK29pPRl6-38" value="Prender la luz&lt;div&gt;del segundo semáforo&lt;/div&gt;&lt;div&gt;peatonal (Roja)&lt;/div&gt;" style="shape=parallelogram;html=1;strokeWidth=2;perimeter=parallelogramPerimeter;whiteSpace=wrap;rounded=1;arcSize=12;size=0.23;" parent="1" vertex="1">
          <mxGeometry x="366" y="110" width="220" height="60" as="geometry" />
        </mxCell>
        <mxCell id="VQxIy5oKjTjXK29pPRl6-41" value="" style="edgeStyle=orthogonalEdgeStyle;rounded=0;orthogonalLoop=1;jettySize=auto;html=1;" parent="1" source="VQxIy5oKjTjXK29pPRl6-43" target="VQxIy5oKjTjXK29pPRl6-45" edge="1">
          <mxGeometry relative="1" as="geometry" />
        </mxCell>
        <mxCell id="VQxIy5oKjTjXK29pPRl6-42" style="edgeStyle=orthogonalEdgeStyle;rounded=0;orthogonalLoop=1;jettySize=auto;html=1;" parent="1" source="VQxIy5oKjTjXK29pPRl6-43" target="VQxIy5oKjTjXK29pPRl6-50" edge="1">
          <mxGeometry relative="1" as="geometry">
            <mxPoint x="719" y="800" as="targetPoint" />
          </mxGeometry>
        </mxCell>
        <mxCell id="VQxIy5oKjTjXK29pPRl6-43" value="Prender la luz del segundo&lt;br&gt;&lt;div&gt;&lt;span style=&quot;background-color: initial;&quot;&gt;semáforo&amp;nbsp;&lt;/span&gt;&lt;span style=&quot;background-color: initial;&quot;&gt;(Verde)&lt;/span&gt;&lt;/div&gt;" style="shape=parallelogram;html=1;strokeWidth=2;perimeter=parallelogramPerimeter;whiteSpace=wrap;rounded=1;arcSize=12;size=0.23;fillColor=#d5e8d4;strokeColor=#82b366;" parent="1" vertex="1">
          <mxGeometry x="363" y="540" width="226" height="60" as="geometry" />
        </mxCell>
        <mxCell id="VQxIy5oKjTjXK29pPRl6-44" value="" style="edgeStyle=orthogonalEdgeStyle;rounded=0;orthogonalLoop=1;jettySize=auto;html=1;" parent="1" source="VQxIy5oKjTjXK29pPRl6-45" target="VQxIy5oKjTjXK29pPRl6-47" edge="1">
          <mxGeometry relative="1" as="geometry" />
        </mxCell>
        <mxCell id="VQxIy5oKjTjXK29pPRl6-45" value="prender la luz del segundo&lt;div&gt;semáforo&amp;nbsp;&lt;span style=&quot;background-color: initial;&quot;&gt;(Amarilla)&lt;/span&gt;&lt;/div&gt;" style="shape=parallelogram;html=1;strokeWidth=2;perimeter=parallelogramPerimeter;whiteSpace=wrap;rounded=1;arcSize=12;size=0.23;fillColor=#fff2cc;strokeColor=#d6b656;" parent="1" vertex="1">
          <mxGeometry x="363" y="640" width="226" height="60" as="geometry" />
        </mxCell>
        <mxCell id="VQxIy5oKjTjXK29pPRl6-46" style="edgeStyle=orthogonalEdgeStyle;rounded=0;orthogonalLoop=1;jettySize=auto;html=1;exitX=0;exitY=0.5;exitDx=0;exitDy=0;" parent="1" source="VQxIy5oKjTjXK29pPRl6-47" edge="1">
          <mxGeometry relative="1" as="geometry">
            <mxPoint x="209" y="770" as="targetPoint" />
          </mxGeometry>
        </mxCell>
        <mxCell id="VQxIy5oKjTjXK29pPRl6-47" value="prender la luz de segundo&lt;div&gt;semáforo&amp;nbsp;&lt;span style=&quot;background-color: initial;&quot;&gt;(Roja)&lt;/span&gt;&lt;/div&gt;" style="shape=parallelogram;html=1;strokeWidth=2;perimeter=parallelogramPerimeter;whiteSpace=wrap;rounded=1;arcSize=12;size=0.23;fillColor=#f8cecc;strokeColor=#b85450;" parent="1" vertex="1">
          <mxGeometry x="363" y="740" width="226" height="60" as="geometry" />
        </mxCell>
        <mxCell id="VQxIy5oKjTjXK29pPRl6-48" value="" style="edgeStyle=orthogonalEdgeStyle;rounded=0;orthogonalLoop=1;jettySize=auto;html=1;" parent="1" source="VQxIy5oKjTjXK29pPRl6-49" target="VQxIy5oKjTjXK29pPRl6-43" edge="1">
          <mxGeometry relative="1" as="geometry" />
        </mxCell>
        <mxCell id="VQxIy5oKjTjXK29pPRl6-49" value="Semaforo 2" style="strokeWidth=2;html=1;shape=mxgraph.flowchart.start_1;whiteSpace=wrap;" parent="1" vertex="1">
          <mxGeometry x="426" y="400" width="100" height="60" as="geometry" />
        </mxCell>
        <mxCell id="VQxIy5oKjTjXK29pPRl6-50" value="Prender la luz del&lt;div&gt;tercer semáforo&lt;/div&gt;&lt;div&gt;peatonal (Verde)&lt;/div&gt;" style="shape=parallelogram;html=1;strokeWidth=2;perimeter=parallelogramPerimeter;whiteSpace=wrap;rounded=1;arcSize=12;size=0.23;" parent="1" vertex="1">
          <mxGeometry x="659" y="770" width="160" height="60" as="geometry" />
        </mxCell>
        <mxCell id="VQxIy5oKjTjXK29pPRl6-51" value="Prender la luz&lt;div&gt;del tercer semáforo&lt;/div&gt;&lt;div&gt;peatonal (Roja)&lt;/div&gt;" style="shape=parallelogram;html=1;strokeWidth=2;perimeter=parallelogramPerimeter;whiteSpace=wrap;rounded=1;arcSize=12;size=0.23;" parent="1" vertex="1">
          <mxGeometry x="9" y="740" width="220" height="60" as="geometry" />
        </mxCell>
        <mxCell id="VQxIy5oKjTjXK29pPRl6-55" style="edgeStyle=orthogonalEdgeStyle;rounded=0;orthogonalLoop=1;jettySize=auto;html=1;exitX=0.5;exitY=1;exitDx=0;exitDy=0;entryX=0.5;entryY=0;entryDx=0;entryDy=0;entryPerimeter=0;" parent="1" source="VQxIy5oKjTjXK29pPRl6-14" target="VQxIy5oKjTjXK29pPRl6-49" edge="1">
          <mxGeometry relative="1" as="geometry" />
        </mxCell>
        <mxCell id="VQxIy5oKjTjXK29pPRl6-56" value="" style="edgeStyle=orthogonalEdgeStyle;rounded=0;orthogonalLoop=1;jettySize=auto;html=1;" parent="1" source="VQxIy5oKjTjXK29pPRl6-58" target="VQxIy5oKjTjXK29pPRl6-60" edge="1">
          <mxGeometry relative="1" as="geometry" />
        </mxCell>
        <mxCell id="VQxIy5oKjTjXK29pPRl6-57" style="edgeStyle=orthogonalEdgeStyle;rounded=0;orthogonalLoop=1;jettySize=auto;html=1;" parent="1" source="VQxIy5oKjTjXK29pPRl6-58" target="VQxIy5oKjTjXK29pPRl6-65" edge="1">
          <mxGeometry relative="1" as="geometry">
            <mxPoint x="719" y="1240" as="targetPoint" />
          </mxGeometry>
        </mxCell>
        <mxCell id="VQxIy5oKjTjXK29pPRl6-58" value="Prender la luz del tercer&lt;br&gt;&lt;div&gt;&lt;span style=&quot;background-color: initial;&quot;&gt;semáforo&lt;/span&gt;&lt;span style=&quot;background-color: initial;&quot;&gt;(Verde)&lt;/span&gt;&lt;/div&gt;" style="shape=parallelogram;html=1;strokeWidth=2;perimeter=parallelogramPerimeter;whiteSpace=wrap;rounded=1;arcSize=12;size=0.23;fillColor=#d5e8d4;strokeColor=#82b366;" parent="1" vertex="1">
          <mxGeometry x="363" y="980" width="226" height="60" as="geometry" />
        </mxCell>
        <mxCell id="VQxIy5oKjTjXK29pPRl6-59" value="" style="edgeStyle=orthogonalEdgeStyle;rounded=0;orthogonalLoop=1;jettySize=auto;html=1;" parent="1" source="VQxIy5oKjTjXK29pPRl6-60" target="VQxIy5oKjTjXK29pPRl6-62" edge="1">
          <mxGeometry relative="1" as="geometry" />
        </mxCell>
        <mxCell id="VQxIy5oKjTjXK29pPRl6-60" value="prender la luz del tercer&lt;div&gt;semáforo&amp;nbsp;&lt;span style=&quot;background-color: initial;&quot;&gt;(Amarilla)&lt;/span&gt;&lt;/div&gt;" style="shape=parallelogram;html=1;strokeWidth=2;perimeter=parallelogramPerimeter;whiteSpace=wrap;rounded=1;arcSize=12;size=0.23;fillColor=#fff2cc;strokeColor=#d6b656;" parent="1" vertex="1">
          <mxGeometry x="363" y="1080" width="226" height="60" as="geometry" />
        </mxCell>
        <mxCell id="VQxIy5oKjTjXK29pPRl6-61" style="edgeStyle=orthogonalEdgeStyle;rounded=0;orthogonalLoop=1;jettySize=auto;html=1;exitX=0;exitY=0.5;exitDx=0;exitDy=0;" parent="1" source="VQxIy5oKjTjXK29pPRl6-62" edge="1">
          <mxGeometry relative="1" as="geometry">
            <mxPoint x="209" y="1210" as="targetPoint" />
          </mxGeometry>
        </mxCell>
        <mxCell id="VQxIy5oKjTjXK29pPRl6-79" value="" style="edgeStyle=orthogonalEdgeStyle;rounded=0;orthogonalLoop=1;jettySize=auto;html=1;" parent="1" source="VQxIy5oKjTjXK29pPRl6-62" target="VQxIy5oKjTjXK29pPRl6-76" edge="1">
          <mxGeometry relative="1" as="geometry" />
        </mxCell>
        <mxCell id="VQxIy5oKjTjXK29pPRl6-62" value="prender la luz de tercer&lt;div&gt;semáforo&amp;nbsp;&lt;span style=&quot;background-color: initial;&quot;&gt;(Roja)&lt;/span&gt;&lt;/div&gt;" style="shape=parallelogram;html=1;strokeWidth=2;perimeter=parallelogramPerimeter;whiteSpace=wrap;rounded=1;arcSize=12;size=0.23;fillColor=#f8cecc;strokeColor=#b85450;" parent="1" vertex="1">
          <mxGeometry x="363" y="1180" width="226" height="60" as="geometry" />
        </mxCell>
        <mxCell id="VQxIy5oKjTjXK29pPRl6-63" value="" style="edgeStyle=orthogonalEdgeStyle;rounded=0;orthogonalLoop=1;jettySize=auto;html=1;" parent="1" source="VQxIy5oKjTjXK29pPRl6-64" target="VQxIy5oKjTjXK29pPRl6-58" edge="1">
          <mxGeometry relative="1" as="geometry" />
        </mxCell>
        <mxCell id="VQxIy5oKjTjXK29pPRl6-64" value="Semaforo 3" style="strokeWidth=2;html=1;shape=mxgraph.flowchart.start_1;whiteSpace=wrap;" parent="1" vertex="1">
          <mxGeometry x="426" y="840" width="100" height="60" as="geometry" />
        </mxCell>
        <mxCell id="VQxIy5oKjTjXK29pPRl6-65" value="Prender la luz del&lt;div&gt;cuarto semáforo&lt;/div&gt;&lt;div&gt;peatonal (Verde)&lt;/div&gt;" style="shape=parallelogram;html=1;strokeWidth=2;perimeter=parallelogramPerimeter;whiteSpace=wrap;rounded=1;arcSize=12;size=0.23;" parent="1" vertex="1">
          <mxGeometry x="659" y="1210" width="160" height="60" as="geometry" />
        </mxCell>
        <mxCell id="VQxIy5oKjTjXK29pPRl6-66" value="Prender la luz&lt;div&gt;del cuarto semáforo&lt;/div&gt;&lt;div&gt;peatonal (Roja)&lt;/div&gt;" style="shape=parallelogram;html=1;strokeWidth=2;perimeter=parallelogramPerimeter;whiteSpace=wrap;rounded=1;arcSize=12;size=0.23;" parent="1" vertex="1">
          <mxGeometry x="9" y="1180" width="220" height="60" as="geometry" />
        </mxCell>
        <mxCell id="VQxIy5oKjTjXK29pPRl6-67" style="edgeStyle=orthogonalEdgeStyle;rounded=0;orthogonalLoop=1;jettySize=auto;html=1;exitX=0.5;exitY=1;exitDx=0;exitDy=0;entryX=0.5;entryY=0;entryDx=0;entryDy=0;entryPerimeter=0;" parent="1" source="VQxIy5oKjTjXK29pPRl6-47" target="VQxIy5oKjTjXK29pPRl6-64" edge="1">
          <mxGeometry relative="1" as="geometry" />
        </mxCell>
        <mxCell id="VQxIy5oKjTjXK29pPRl6-68" value="" style="edgeStyle=orthogonalEdgeStyle;rounded=0;orthogonalLoop=1;jettySize=auto;html=1;" parent="1" source="VQxIy5oKjTjXK29pPRl6-70" target="VQxIy5oKjTjXK29pPRl6-72" edge="1">
          <mxGeometry relative="1" as="geometry" />
        </mxCell>
        <mxCell id="VQxIy5oKjTjXK29pPRl6-69" style="edgeStyle=orthogonalEdgeStyle;rounded=0;orthogonalLoop=1;jettySize=auto;html=1;" parent="1" source="VQxIy5oKjTjXK29pPRl6-70" target="VQxIy5oKjTjXK29pPRl6-77" edge="1">
          <mxGeometry relative="1" as="geometry">
            <mxPoint x="719" y="1670" as="targetPoint" />
          </mxGeometry>
        </mxCell>
        <mxCell id="VQxIy5oKjTjXK29pPRl6-70" value="Prender la luz del cuarto&lt;br&gt;&lt;div&gt;&lt;span style=&quot;background-color: initial;&quot;&gt;semáforo&lt;/span&gt;&lt;span style=&quot;background-color: initial;&quot;&gt;(Verde)&lt;/span&gt;&lt;/div&gt;" style="shape=parallelogram;html=1;strokeWidth=2;perimeter=parallelogramPerimeter;whiteSpace=wrap;rounded=1;arcSize=12;size=0.23;fillColor=#d5e8d4;strokeColor=#82b366;" parent="1" vertex="1">
          <mxGeometry x="363" y="1410" width="226" height="60" as="geometry" />
        </mxCell>
        <mxCell id="VQxIy5oKjTjXK29pPRl6-71" value="" style="edgeStyle=orthogonalEdgeStyle;rounded=0;orthogonalLoop=1;jettySize=auto;html=1;" parent="1" source="VQxIy5oKjTjXK29pPRl6-72" target="VQxIy5oKjTjXK29pPRl6-74" edge="1">
          <mxGeometry relative="1" as="geometry" />
        </mxCell>
        <mxCell id="VQxIy5oKjTjXK29pPRl6-72" value="prender la luz del cuarto&lt;div&gt;semáforo&amp;nbsp;&lt;span style=&quot;background-color: initial;&quot;&gt;(Amarilla)&lt;/span&gt;&lt;/div&gt;" style="shape=parallelogram;html=1;strokeWidth=2;perimeter=parallelogramPerimeter;whiteSpace=wrap;rounded=1;arcSize=12;size=0.23;fillColor=#fff2cc;strokeColor=#d6b656;" parent="1" vertex="1">
          <mxGeometry x="363" y="1510" width="226" height="60" as="geometry" />
        </mxCell>
        <mxCell id="VQxIy5oKjTjXK29pPRl6-73" style="edgeStyle=orthogonalEdgeStyle;rounded=0;orthogonalLoop=1;jettySize=auto;html=1;exitX=0;exitY=0.5;exitDx=0;exitDy=0;" parent="1" source="VQxIy5oKjTjXK29pPRl6-74" edge="1">
          <mxGeometry relative="1" as="geometry">
            <mxPoint x="209" y="1640" as="targetPoint" />
          </mxGeometry>
        </mxCell>
        <mxCell id="VQxIy5oKjTjXK29pPRl6-74" value="prender la luz de cuarto&lt;div&gt;semáforo&amp;nbsp;&lt;span style=&quot;background-color: initial;&quot;&gt;(Roja)&lt;/span&gt;&lt;/div&gt;" style="shape=parallelogram;html=1;strokeWidth=2;perimeter=parallelogramPerimeter;whiteSpace=wrap;rounded=1;arcSize=12;size=0.23;fillColor=#f8cecc;strokeColor=#b85450;" parent="1" vertex="1">
          <mxGeometry x="363" y="1610" width="226" height="60" as="geometry" />
        </mxCell>
        <mxCell id="VQxIy5oKjTjXK29pPRl6-75" value="" style="edgeStyle=orthogonalEdgeStyle;rounded=0;orthogonalLoop=1;jettySize=auto;html=1;" parent="1" source="VQxIy5oKjTjXK29pPRl6-76" target="VQxIy5oKjTjXK29pPRl6-70" edge="1">
          <mxGeometry relative="1" as="geometry" />
        </mxCell>
        <mxCell id="VQxIy5oKjTjXK29pPRl6-76" value="Semaforo 4" style="strokeWidth=2;html=1;shape=mxgraph.flowchart.start_1;whiteSpace=wrap;" parent="1" vertex="1">
          <mxGeometry x="426" y="1270" width="100" height="60" as="geometry" />
        </mxCell>
        <mxCell id="VQxIy5oKjTjXK29pPRl6-77" value="Prender la luz del&lt;div&gt;primer semáforo&lt;/div&gt;&lt;div&gt;peatonal (Verde)&lt;/div&gt;" style="shape=parallelogram;html=1;strokeWidth=2;perimeter=parallelogramPerimeter;whiteSpace=wrap;rounded=1;arcSize=12;size=0.23;" parent="1" vertex="1">
          <mxGeometry x="659" y="1640" width="160" height="60" as="geometry" />
        </mxCell>
        <mxCell id="VQxIy5oKjTjXK29pPRl6-78" value="Prender la luz&lt;div&gt;del primer semáforo&lt;/div&gt;&lt;div&gt;peatonal (Roja)&lt;/div&gt;" style="shape=parallelogram;html=1;strokeWidth=2;perimeter=parallelogramPerimeter;whiteSpace=wrap;rounded=1;arcSize=12;size=0.23;" parent="1" vertex="1">
          <mxGeometry x="9" y="1610" width="220" height="60" as="geometry" />
        </mxCell>
        <mxCell id="pNOMXDypmXr5SicLwE-0-1" value="" style="edgeStyle=orthogonalEdgeStyle;rounded=0;orthogonalLoop=1;jettySize=auto;html=1;" edge="1" parent="1" source="VQxIy5oKjTjXK29pPRl6-8" target="VQxIy5oKjTjXK29pPRl6-36">
          <mxGeometry relative="1" as="geometry">
            <mxPoint x="476" y="-110" as="sourcePoint" />
            <mxPoint x="476" y="10" as="targetPoint" />
          </mxGeometry>
        </mxCell>
        <mxCell id="VQxIy5oKjTjXK29pPRl6-36" value="Prender la luz del&lt;div&gt;segundo semáforo&lt;/div&gt;&lt;div&gt;peatonal (Verde)&lt;/div&gt;" style="shape=parallelogram;html=1;strokeWidth=2;perimeter=parallelogramPerimeter;whiteSpace=wrap;rounded=1;arcSize=12;size=0.23;" parent="1" vertex="1">
          <mxGeometry x="395" y="-80" width="160" height="60" as="geometry" />
        </mxCell>
      </root>
    </mxGraphModel>
  </diagram>
  <diagram id="CJe_sSOzjOwtuBVg-zHX" name="Página-2">
    <mxGraphModel dx="1114" dy="616" grid="1" gridSize="10" guides="1" tooltips="1" connect="1" arrows="1" fold="1" page="1" pageScale="1" pageWidth="827" pageHeight="1169" math="0" shadow="0">
      <root>
        <mxCell id="0" />
        <mxCell id="1" parent="0" />
        <mxCell id="UO-gYEfSbOkWbIjwykDA-3" style="edgeStyle=orthogonalEdgeStyle;rounded=0;orthogonalLoop=1;jettySize=auto;html=1;exitX=0.5;exitY=1;exitDx=0;exitDy=0;exitPerimeter=0;entryX=0.5;entryY=0;entryDx=0;entryDy=0;" edge="1" parent="1" source="UO-gYEfSbOkWbIjwykDA-1" target="UO-gYEfSbOkWbIjwykDA-2">
          <mxGeometry relative="1" as="geometry" />
        </mxCell>
        <mxCell id="UO-gYEfSbOkWbIjwykDA-1" value="Iniciar" style="strokeWidth=2;html=1;shape=mxgraph.flowchart.start_1;whiteSpace=wrap;" vertex="1" parent="1">
          <mxGeometry x="364" y="110" width="100" height="60" as="geometry" />
        </mxCell>
        <mxCell id="UO-gYEfSbOkWbIjwykDA-7" value="" style="edgeStyle=orthogonalEdgeStyle;rounded=0;orthogonalLoop=1;jettySize=auto;html=1;" edge="1" parent="1" source="UO-gYEfSbOkWbIjwykDA-2" target="UO-gYEfSbOkWbIjwykDA-6">
          <mxGeometry relative="1" as="geometry" />
        </mxCell>
        <mxCell id="UO-gYEfSbOkWbIjwykDA-2" value="Luz verde en semáforo 1" style="shape=parallelogram;html=1;strokeWidth=2;perimeter=parallelogramPerimeter;whiteSpace=wrap;rounded=1;arcSize=12;size=0.23;" vertex="1" parent="1">
          <mxGeometry x="317" y="230" width="194" height="100" as="geometry" />
        </mxCell>
        <mxCell id="UO-gYEfSbOkWbIjwykDA-12" value="" style="edgeStyle=orthogonalEdgeStyle;rounded=0;orthogonalLoop=1;jettySize=auto;html=1;" edge="1" parent="1" source="UO-gYEfSbOkWbIjwykDA-6" target="UO-gYEfSbOkWbIjwykDA-10">
          <mxGeometry relative="1" as="geometry" />
        </mxCell>
        <mxCell id="UO-gYEfSbOkWbIjwykDA-6" value="Luz verde en semáforo&lt;div&gt;peatonal 2&lt;/div&gt;" style="shape=parallelogram;html=1;strokeWidth=2;perimeter=parallelogramPerimeter;whiteSpace=wrap;rounded=1;arcSize=12;size=0.23;" vertex="1" parent="1">
          <mxGeometry x="317" y="380" width="194" height="100" as="geometry" />
        </mxCell>
        <mxCell id="UO-gYEfSbOkWbIjwykDA-14" value="" style="edgeStyle=orthogonalEdgeStyle;rounded=0;orthogonalLoop=1;jettySize=auto;html=1;" edge="1" parent="1" source="UO-gYEfSbOkWbIjwykDA-10" target="UO-gYEfSbOkWbIjwykDA-13">
          <mxGeometry relative="1" as="geometry" />
        </mxCell>
        <mxCell id="UO-gYEfSbOkWbIjwykDA-10" value="Esperar 27 segundos" style="strokeWidth=2;html=1;shape=mxgraph.flowchart.delay;whiteSpace=wrap;" vertex="1" parent="1">
          <mxGeometry x="364" y="520" width="100" height="60" as="geometry" />
        </mxCell>
        <mxCell id="UO-gYEfSbOkWbIjwykDA-16" value="" style="edgeStyle=orthogonalEdgeStyle;rounded=0;orthogonalLoop=1;jettySize=auto;html=1;" edge="1" parent="1" source="UO-gYEfSbOkWbIjwykDA-13" target="UO-gYEfSbOkWbIjwykDA-15">
          <mxGeometry relative="1" as="geometry" />
        </mxCell>
        <mxCell id="UO-gYEfSbOkWbIjwykDA-13" value="&lt;span style=&quot;font-weight: normal;&quot;&gt;Prender luz amarilla en&amp;nbsp;&lt;/span&gt;&lt;div&gt;&lt;span style=&quot;font-weight: normal;&quot;&gt;el primer semáforo&lt;/span&gt;&lt;/div&gt;" style="shape=parallelogram;html=1;strokeWidth=2;perimeter=parallelogramPerimeter;whiteSpace=wrap;rounded=1;arcSize=12;size=0.23;fontStyle=1" vertex="1" parent="1">
          <mxGeometry x="317" y="620" width="194" height="100" as="geometry" />
        </mxCell>
        <mxCell id="UO-gYEfSbOkWbIjwykDA-18" value="" style="edgeStyle=orthogonalEdgeStyle;rounded=0;orthogonalLoop=1;jettySize=auto;html=1;" edge="1" parent="1" source="UO-gYEfSbOkWbIjwykDA-15" target="UO-gYEfSbOkWbIjwykDA-17">
          <mxGeometry relative="1" as="geometry" />
        </mxCell>
        <mxCell id="UO-gYEfSbOkWbIjwykDA-15" value="Esperar 3 segundos" style="strokeWidth=2;html=1;shape=mxgraph.flowchart.delay;whiteSpace=wrap;" vertex="1" parent="1">
          <mxGeometry x="364" y="760" width="100" height="60" as="geometry" />
        </mxCell>
        <mxCell id="UO-gYEfSbOkWbIjwykDA-20" value="" style="edgeStyle=orthogonalEdgeStyle;rounded=0;orthogonalLoop=1;jettySize=auto;html=1;" edge="1" parent="1" source="UO-gYEfSbOkWbIjwykDA-17" target="UO-gYEfSbOkWbIjwykDA-19">
          <mxGeometry relative="1" as="geometry" />
        </mxCell>
        <mxCell id="UO-gYEfSbOkWbIjwykDA-17" value="Prender luz roja del&amp;nbsp;&lt;div&gt;primer semáforo&lt;/div&gt;" style="shape=parallelogram;html=1;strokeWidth=2;perimeter=parallelogramPerimeter;whiteSpace=wrap;rounded=1;arcSize=12;size=0.23;" vertex="1" parent="1">
          <mxGeometry x="317" y="860" width="194" height="100" as="geometry" />
        </mxCell>
        <mxCell id="UO-gYEfSbOkWbIjwykDA-23" value="" style="edgeStyle=orthogonalEdgeStyle;rounded=0;orthogonalLoop=1;jettySize=auto;html=1;" edge="1" parent="1" source="UO-gYEfSbOkWbIjwykDA-19" target="UO-gYEfSbOkWbIjwykDA-22">
          <mxGeometry relative="1" as="geometry" />
        </mxCell>
        <mxCell id="UO-gYEfSbOkWbIjwykDA-19" value="Prender luz roja en&amp;nbsp;&lt;div&gt;el segundo semáforo&lt;/div&gt;" style="shape=parallelogram;html=1;strokeWidth=2;perimeter=parallelogramPerimeter;whiteSpace=wrap;rounded=1;arcSize=12;size=0.23;" vertex="1" parent="1">
          <mxGeometry x="317" y="1000" width="194" height="100" as="geometry" />
        </mxCell>
        <mxCell id="UO-gYEfSbOkWbIjwykDA-37" value="" style="edgeStyle=orthogonalEdgeStyle;rounded=0;orthogonalLoop=1;jettySize=auto;html=1;" edge="1" parent="1" source="UO-gYEfSbOkWbIjwykDA-22" target="UO-gYEfSbOkWbIjwykDA-25">
          <mxGeometry relative="1" as="geometry" />
        </mxCell>
        <mxCell id="UO-gYEfSbOkWbIjwykDA-22" value="Esperar 27 segundos" style="strokeWidth=2;html=1;shape=mxgraph.flowchart.delay;whiteSpace=wrap;" vertex="1" parent="1">
          <mxGeometry x="364" y="1140" width="100" height="60" as="geometry" />
        </mxCell>
        <mxCell id="UO-gYEfSbOkWbIjwykDA-24" value="" style="edgeStyle=orthogonalEdgeStyle;rounded=0;orthogonalLoop=1;jettySize=auto;html=1;" edge="1" parent="1" source="UO-gYEfSbOkWbIjwykDA-25" target="UO-gYEfSbOkWbIjwykDA-27">
          <mxGeometry relative="1" as="geometry" />
        </mxCell>
        <mxCell id="UO-gYEfSbOkWbIjwykDA-25" value="Luz verde en semáforo 2" style="shape=parallelogram;html=1;strokeWidth=2;perimeter=parallelogramPerimeter;whiteSpace=wrap;rounded=1;arcSize=12;size=0.23;" vertex="1" parent="1">
          <mxGeometry x="317" y="1240" width="194" height="100" as="geometry" />
        </mxCell>
        <mxCell id="UO-gYEfSbOkWbIjwykDA-26" value="" style="edgeStyle=orthogonalEdgeStyle;rounded=0;orthogonalLoop=1;jettySize=auto;html=1;" edge="1" parent="1" source="UO-gYEfSbOkWbIjwykDA-27" target="UO-gYEfSbOkWbIjwykDA-29">
          <mxGeometry relative="1" as="geometry" />
        </mxCell>
        <mxCell id="UO-gYEfSbOkWbIjwykDA-27" value="Luz verde en semáforo&lt;div&gt;peatonal 3&lt;/div&gt;" style="shape=parallelogram;html=1;strokeWidth=2;perimeter=parallelogramPerimeter;whiteSpace=wrap;rounded=1;arcSize=12;size=0.23;" vertex="1" parent="1">
          <mxGeometry x="317" y="1390" width="194" height="100" as="geometry" />
        </mxCell>
        <mxCell id="UO-gYEfSbOkWbIjwykDA-28" value="" style="edgeStyle=orthogonalEdgeStyle;rounded=0;orthogonalLoop=1;jettySize=auto;html=1;" edge="1" parent="1" source="UO-gYEfSbOkWbIjwykDA-29" target="UO-gYEfSbOkWbIjwykDA-31">
          <mxGeometry relative="1" as="geometry" />
        </mxCell>
        <mxCell id="UO-gYEfSbOkWbIjwykDA-29" value="Esperar 27 segundos" style="strokeWidth=2;html=1;shape=mxgraph.flowchart.delay;whiteSpace=wrap;" vertex="1" parent="1">
          <mxGeometry x="364" y="1530" width="100" height="60" as="geometry" />
        </mxCell>
        <mxCell id="UO-gYEfSbOkWbIjwykDA-30" value="" style="edgeStyle=orthogonalEdgeStyle;rounded=0;orthogonalLoop=1;jettySize=auto;html=1;" edge="1" parent="1" source="UO-gYEfSbOkWbIjwykDA-31" target="UO-gYEfSbOkWbIjwykDA-33">
          <mxGeometry relative="1" as="geometry" />
        </mxCell>
        <mxCell id="UO-gYEfSbOkWbIjwykDA-31" value="&lt;span style=&quot;font-weight: normal;&quot;&gt;Prender luz amarilla en&amp;nbsp;&lt;/span&gt;&lt;div&gt;&lt;span style=&quot;font-weight: normal;&quot;&gt;el segundo semáforo&lt;/span&gt;&lt;/div&gt;" style="shape=parallelogram;html=1;strokeWidth=2;perimeter=parallelogramPerimeter;whiteSpace=wrap;rounded=1;arcSize=12;size=0.23;fontStyle=1" vertex="1" parent="1">
          <mxGeometry x="317" y="1630" width="194" height="100" as="geometry" />
        </mxCell>
        <mxCell id="UO-gYEfSbOkWbIjwykDA-32" value="" style="edgeStyle=orthogonalEdgeStyle;rounded=0;orthogonalLoop=1;jettySize=auto;html=1;" edge="1" parent="1" source="UO-gYEfSbOkWbIjwykDA-33" target="UO-gYEfSbOkWbIjwykDA-35">
          <mxGeometry relative="1" as="geometry" />
        </mxCell>
        <mxCell id="UO-gYEfSbOkWbIjwykDA-33" value="Esperar 3 segundos" style="strokeWidth=2;html=1;shape=mxgraph.flowchart.delay;whiteSpace=wrap;" vertex="1" parent="1">
          <mxGeometry x="364" y="1770" width="100" height="60" as="geometry" />
        </mxCell>
        <mxCell id="UO-gYEfSbOkWbIjwykDA-34" value="" style="edgeStyle=orthogonalEdgeStyle;rounded=0;orthogonalLoop=1;jettySize=auto;html=1;" edge="1" parent="1" source="UO-gYEfSbOkWbIjwykDA-35" target="UO-gYEfSbOkWbIjwykDA-36">
          <mxGeometry relative="1" as="geometry" />
        </mxCell>
        <mxCell id="UO-gYEfSbOkWbIjwykDA-35" value="Prender luz roja del&amp;nbsp;&lt;div&gt;segundo semáforo&lt;/div&gt;" style="shape=parallelogram;html=1;strokeWidth=2;perimeter=parallelogramPerimeter;whiteSpace=wrap;rounded=1;arcSize=12;size=0.23;" vertex="1" parent="1">
          <mxGeometry x="317" y="1870" width="194" height="100" as="geometry" />
        </mxCell>
        <mxCell id="UO-gYEfSbOkWbIjwykDA-36" value="Prender luz roja en&amp;nbsp;&lt;div&gt;el tercer semáforo&lt;/div&gt;" style="shape=parallelogram;html=1;strokeWidth=2;perimeter=parallelogramPerimeter;whiteSpace=wrap;rounded=1;arcSize=12;size=0.23;" vertex="1" parent="1">
          <mxGeometry x="317" y="2010" width="194" height="100" as="geometry" />
        </mxCell>
      </root>
    </mxGraphModel>
  </diagram>
</mxfile>
